<svg width="504" height="72" viewBox="0 0 504 72" fill="none" xmlns="http://www.w3.org/2000/svg">
<g filter="url(#filter0_d_35_61)">
<path d="M68.3 1.955V65.705H52.32V8.925L59.63 16.15H10.84L18.065 8.925V65.705H1.99998V1.955H68.3ZM116.049 1.955C121.263 1.955 125.739 2.86166 129.479 4.675C133.276 6.43166 136.166 8.925 138.149 12.155C140.189 15.385 141.209 19.1533 141.209 23.46C141.209 27.7667 140.189 31.535 138.149 34.765C136.166 37.995 133.276 40.5167 129.479 42.33C125.739 44.0867 121.263 44.965 116.049 44.965H88.1694V31.96H115.199C118.259 31.96 120.668 31.2233 122.424 29.75C124.181 28.22 125.059 26.1233 125.059 23.46C125.059 20.7967 124.181 18.7283 122.424 17.255C120.668 15.725 118.259 14.96 115.199 14.96H89.6144L96.8394 7.48V65.705H80.7744V1.955H116.049ZM183.768 67.065C176.288 67.065 169.715 65.6767 164.048 62.9C158.438 60.1233 154.075 56.2417 150.958 51.255C147.841 46.2683 146.283 40.46 146.283 33.83C146.283 27.2 147.841 21.3917 150.958 16.405C154.075 11.4183 158.438 7.53667 164.048 4.76C169.715 1.98333 176.288 0.594999 183.768 0.594999C191.248 0.594999 197.793 1.98333 203.403 4.76C209.07 7.53667 213.461 11.4183 216.578 16.405C219.751 21.3917 221.338 27.2 221.338 33.83C221.338 40.46 219.751 46.2683 216.578 51.255C213.461 56.2417 209.07 60.1233 203.403 62.9C197.793 65.6767 191.248 67.065 183.768 67.065ZM183.768 52.7C188.188 52.7 191.985 51.9633 195.158 50.49C198.331 48.96 200.768 46.7783 202.468 43.945C204.225 41.1117 205.103 37.74 205.103 33.83C205.103 29.92 204.225 26.5483 202.468 23.715C200.768 20.8817 198.331 18.7283 195.158 17.255C191.985 15.725 188.188 14.96 183.768 14.96C179.405 14.96 175.636 15.725 172.463 17.255C169.29 18.7283 166.825 20.8817 165.068 23.715C163.311 26.5483 162.433 29.92 162.433 33.83C162.433 37.74 163.311 41.1117 165.068 43.945C166.825 46.7783 169.29 48.96 172.463 50.49C175.636 51.9633 179.405 52.7 183.768 52.7ZM279.813 55.675V42.925H301.063C303.613 42.925 305.766 42.5 307.523 41.65C309.336 40.8 310.724 39.5817 311.688 37.995C312.708 36.3517 313.218 34.425 313.218 32.215C313.218 30.005 312.708 28.1067 311.688 26.52C310.724 24.9333 309.336 23.715 307.523 22.865C305.766 22.015 303.613 21.59 301.063 21.59H279.898V8.925H301.913C307.636 8.925 312.538 9.88833 316.618 11.815C320.698 13.7417 323.843 16.4617 326.053 19.975C328.319 23.4317 329.453 27.5117 329.453 32.215C329.453 36.9183 328.319 41.0267 326.053 44.54C323.843 48.0533 320.698 50.8017 316.618 52.785C312.538 54.7117 307.636 55.675 301.913 55.675H279.813ZM254.398 55.675C248.788 55.675 243.914 54.7117 239.778 52.785C235.698 50.8017 232.524 48.0533 230.258 44.54C228.048 41.0267 226.943 36.9183 226.943 32.215C226.943 27.5117 228.048 23.4317 230.258 19.975C232.524 16.4617 235.698 13.7417 239.778 11.815C243.914 9.88833 248.788 8.925 254.398 8.925H276.413V21.59H255.248C252.754 21.59 250.601 22.015 248.788 22.865C246.974 23.715 245.586 24.9333 244.623 26.52C243.659 28.1067 243.178 30.005 243.178 32.215C243.178 34.425 243.659 36.3517 244.623 37.995C245.586 39.5817 246.974 40.8 248.788 41.65C250.601 42.5 252.754 42.925 255.248 42.925H276.498V55.675H254.398ZM270.123 67.66V-3.39746e-06H286.188V67.66H270.123ZM357.356 65.705V1.955H373.166V57.375L368.491 56.44L406.741 1.955H427.651V65.705H411.926V9.35L416.516 10.285L377.756 65.705H357.356ZM460.177 9.01H476.242V65.705H460.177V9.01ZM435.357 1.955H501.062V16.15H435.357V1.955Z" fill="#E7E3DB"/>
</g>
<defs>
<filter id="filter0_d_35_61" x="0" y="0" width="503.062" height="71.66" filterUnits="userSpaceOnUse" color-interpolation-filters="sRGB">
<feFlood flood-opacity="0" result="BackgroundImageFix"/>
<feColorMatrix in="SourceAlpha" type="matrix" values="0 0 0 0 0 0 0 0 0 0 0 0 0 0 0 0 0 0 127 0" result="hardAlpha"/>
<feOffset dy="2"/>
<feGaussianBlur stdDeviation="1"/>
<feComposite in2="hardAlpha" operator="out"/>
<feColorMatrix type="matrix" values="0 0 0 0 0 0 0 0 0 0 0 0 0 0 0 0 0 0 0.15 0"/>
<feBlend mode="normal" in2="BackgroundImageFix" result="effect1_dropShadow_35_61"/>
<feBlend mode="normal" in="SourceGraphic" in2="effect1_dropShadow_35_61" result="shape"/>
</filter>
</defs>
</svg>
